<svg width="48" height="29" viewBox="0 0 48 29" fill="none" xmlns="http://www.w3.org/2000/svg">
<path id="Vector" d="M4.50881 0.0158691C3.35703 0.0158691 2.25242 0.38629 1.43799 1.04564C0.623558 1.705 0.166016 2.59927 0.166016 3.53174V22.869H4.50881C4.50881 24.2677 5.19512 25.6092 6.41677 26.5982C7.63842 27.5872 9.29532 28.1429 11.023 28.1429C12.7507 28.1429 14.4076 27.5872 15.6292 26.5982C16.8509 25.6092 17.5372 24.2677 17.5372 22.869H30.5656C30.5656 24.2677 31.2519 25.6092 32.4735 26.5982C33.6952 27.5872 35.3521 28.1429 37.0797 28.1429C38.8074 28.1429 40.4643 27.5872 41.686 26.5982C42.9076 25.6092 43.5939 24.2677 43.5939 22.869H47.9367V14.0794L41.4225 7.04762H34.9083V0.0158691M19.7086 3.53174L28.3942 10.5635L19.7086 17.5952V12.3214H6.6802V8.80555H19.7086M34.9083 9.68452H40.3368L44.6145 14.0794H34.9083M11.023 20.2321C11.8868 20.2321 12.7153 20.51 13.3261 21.0045C13.9369 21.499 14.2801 22.1697 14.2801 22.869C14.2801 23.5684 13.9369 24.2391 13.3261 24.7336C12.7153 25.2281 11.8868 25.5059 11.023 25.5059C10.1592 25.5059 9.3307 25.2281 8.71988 24.7336C8.10906 24.2391 7.7659 23.5684 7.7659 22.869C7.7659 22.1697 8.10906 21.499 8.71988 21.0045C9.3307 20.51 10.1592 20.2321 11.023 20.2321ZM37.0797 20.2321C37.9436 20.2321 38.772 20.51 39.3829 21.0045C39.9937 21.499 40.3368 22.1697 40.3368 22.869C40.3368 23.5684 39.9937 24.2391 39.3829 24.7336C38.772 25.2281 37.9436 25.5059 37.0797 25.5059C36.2159 25.5059 35.3875 25.2281 34.7766 24.7336C34.1658 24.2391 33.8227 23.5684 33.8227 22.869C33.8227 22.1697 34.1658 21.499 34.7766 21.0045C35.3875 20.51 36.2159 20.2321 37.0797 20.2321Z" fill="#C19C55"/>
</svg>
