<svg width="25" height="25" viewBox="0 0 25 25" fill="none" xmlns="http://www.w3.org/2000/svg">
<path id="Vector" fill-rule="evenodd" clip-rule="evenodd" d="M6.94444 5.55556C6.94444 4.08213 7.52976 2.66905 8.57163 1.62718C9.6135 0.585316 11.0266 0 12.5 0C13.9734 0 15.3865 0.585316 16.4284 1.62718C17.4702 2.66905 18.0556 4.08213 18.0556 5.55556C18.0556 7.02898 17.4702 8.44206 16.4284 9.48393C15.3865 10.5258 13.9734 11.1111 12.5 11.1111C11.0266 11.1111 9.6135 10.5258 8.57163 9.48393C7.52976 8.44206 6.94444 7.02898 6.94444 5.55556ZM6.94444 13.8889C5.10266 13.8889 3.33632 14.6205 2.03398 15.9229C0.731645 17.2252 0 18.9916 0 20.8333C0 21.9384 0.438987 22.9982 1.22039 23.7796C2.00179 24.561 3.0616 25 4.16667 25H20.8333C21.9384 25 22.9982 24.561 23.7796 23.7796C24.561 22.9982 25 21.9384 25 20.8333C25 18.9916 24.2684 17.2252 22.966 15.9229C21.6637 14.6205 19.8973 13.8889 18.0556 13.8889H6.94444Z" fill="#CC9966"/>
</svg>
