<svg width="48" height="48" viewBox="0 0 48 48" fill="none" xmlns="http://www.w3.org/2000/svg">
<g id="Group">
<path id="Vector" d="M42.6396 19.0519C45.4251 29.6138 39.2514 40.4727 28.8447 43.3023C19.8757 45.7418 10.696 41.4212 6.54309 33.4216C6.30201 32.9568 6.25268 32.4138 6.40596 31.9122C6.55924 31.4105 6.90256 30.9911 7.36041 30.7464C7.81825 30.5017 8.35312 30.4516 8.84734 30.6072C9.34155 30.7628 9.75464 31.1113 9.99572 31.5761C11.6673 34.7888 14.376 37.3206 17.6678 38.7471C20.9596 40.1735 24.6344 40.408 28.0762 39.4111C31.518 38.4142 34.5177 36.2465 36.5723 33.2715C38.6269 30.2965 39.6116 26.6949 39.3614 23.0705C39.1112 19.4462 37.6412 16.0192 35.1978 13.3642C32.7545 10.7092 29.4863 8.98755 25.9411 8.48776C22.3959 7.98797 18.7893 8.74046 15.7257 10.6191C12.6621 12.4977 10.3278 15.3883 9.11403 18.8063L11.1759 18.341C13.4893 17.8163 14.8079 20.927 12.8417 22.2715L7.62765 25.8397C6.22709 26.7961 4.27255 25.808 4.2862 24.0219C4.32129 19.6896 5.75471 15.4885 8.36683 12.0623C10.9789 8.636 14.6257 6.17363 18.7482 5.05244C29.1529 2.21692 39.8502 8.48596 42.6377 19.0479L42.6396 19.0519ZM23.7965 12.2957C24.3138 12.2957 24.81 12.5043 25.1758 12.8757C25.5416 13.247 25.7471 13.7507 25.7471 14.2758V16.2559H29.6484C30.1657 16.2559 30.6619 16.4646 31.0277 16.8359C31.3935 17.2072 31.599 17.7109 31.599 18.2361C31.599 18.7612 31.3935 19.2649 31.0277 19.6362C30.6619 20.0075 30.1657 20.2162 29.6484 20.2162H19.8952C19.6365 20.2162 19.3885 20.3205 19.2055 20.5061C19.0226 20.6918 18.9199 20.9436 18.9199 21.2062C18.9199 21.4688 19.0226 21.7206 19.2055 21.9063C19.3885 22.092 19.6365 22.1963 19.8952 22.1963H27.6978C28.9911 22.1963 30.2315 22.7178 31.146 23.6462C32.0606 24.5745 32.5743 25.8337 32.5743 27.1466C32.5743 28.4595 32.0606 29.7186 31.146 30.647C30.2315 31.5753 28.9911 32.0969 27.6978 32.0969H25.7471V34.077C25.7471 34.6021 25.5416 35.1058 25.1758 35.4771C24.81 35.8485 24.3138 36.0571 23.7965 36.0571C23.2791 36.0571 22.783 35.8485 22.4172 35.4771C22.0514 35.1058 21.8458 34.6021 21.8458 34.077V32.0969H17.9446C17.4272 32.0969 16.9311 31.8882 16.5653 31.5169C16.1994 31.1456 15.9939 30.6419 15.9939 30.1167C15.9939 29.5916 16.1994 29.0879 16.5653 28.7166C16.9311 28.3452 17.4272 28.1366 17.9446 28.1366H27.6978C27.9564 28.1366 28.2045 28.0323 28.3874 27.8466C28.5703 27.661 28.6731 27.4092 28.6731 27.1466C28.6731 26.884 28.5703 26.6322 28.3874 26.4465C28.2045 26.2608 27.9564 26.1565 27.6978 26.1565H19.8952C18.6018 26.1565 17.3615 25.635 16.4469 24.7066C15.5324 23.7782 15.0186 22.5191 15.0186 21.2062C15.0186 19.8933 15.5324 18.6342 16.4469 17.7058C17.3615 16.7775 18.6018 16.2559 19.8952 16.2559H21.8458V14.2758C21.8458 13.7507 22.0514 13.247 22.4172 12.8757C22.783 12.5043 23.2791 12.2957 23.7965 12.2957Z" fill="#C19C55"/>
</g>
</svg>
