<svg width="42" height="39" viewBox="0 0 42 39" fill="none" xmlns="http://www.w3.org/2000/svg">
<g id="subway:time-3" clip-path="url(#clip0_52_3595)">
<path id="Vector" d="M21 0C9.40078 0 0 8.7293 0 19.5C0 30.2707 9.40078 39 21 39C32.5992 39 42 30.2707 42 19.5C42 8.7293 32.5992 0 21 0ZM21 35.7475C11.3367 35.7475 3.50273 28.473 3.50273 19.5C3.50273 10.527 11.3367 3.25254 21 3.25254C30.6633 3.25254 38.4973 10.527 38.4973 19.5C38.4973 28.473 30.6633 35.7475 21 35.7475ZM19.2527 17.8775L12.2473 24.375L14.8723 26.8125L22.7473 19.5V6.49746H19.2445V17.8775H19.2527Z" fill="#C19C55"/>
</g>
<defs>
<clipPath id="clip0_52_3595">
<rect width="42" height="39" fill="white"/>
</clipPath>
</defs>
</svg>
